<?xml version="1.0" encoding="UTF-8" ?>
<!DOCTYPE svg PUBLIC "-//W3C//DTD SVG 1.1//EN" "http://www.w3.org/Graphics/SVG/1.1/DTD/svg11.dtd">
<svg width="224pt" height="224pt" viewBox="0 0 224 224" version="1.1" xmlns="http://www.w3.org/2000/svg">
<g id="#ffffffff">
</g>
<g id="#fad759ff">
<path fill="#fad759" opacity="1.00" d=" M 85.32 9.27 C 96.59 5.50 109.50 7.14 119.41 13.71 C 141.61 27.79 163.75 41.95 185.92 56.07 C 190.09 58.73 194.34 61.57 197.20 65.70 C 201.11 71.30 203.20 78.13 203.23 84.96 C 203.30 92.31 203.82 99.66 203.80 107.01 C 203.78 120.10 197.40 133.06 186.76 140.77 C 168.82 153.50 150.84 166.19 132.90 178.91 C 130.07 180.99 127.15 182.96 124.06 184.63 C 123.44 184.25 122.21 183.49 121.59 183.12 C 121.06 180.45 120.65 177.76 120.70 175.04 C 120.93 160.36 119.71 145.69 119.88 131.01 C 119.83 126.26 122.64 121.98 126.43 119.32 C 137.65 110.92 148.98 102.65 160.16 94.18 C 164.71 90.88 168.31 86.21 169.78 80.74 C 171.64 73.39 169.88 65.01 164.59 59.45 C 161.38 55.84 157.16 53.41 153.18 50.78 C 142.37 43.56 131.50 36.43 120.60 29.34 C 115.37 25.71 110.04 21.75 103.61 20.65 C 98.09 19.82 92.27 20.02 87.06 22.17 C 82.73 23.87 79.04 26.75 75.18 29.27 C 59.20 39.75 43.30 50.35 27.40 60.95 C 27.22 56.24 27.00 51.52 26.72 46.81 C 41.23 36.93 55.97 27.41 70.53 17.60 C 75.30 14.57 79.87 11.01 85.32 9.27 Z" />
</g>
<g id="#2679b0ff">
<path fill="#2679b0" opacity="1.00" d=" M 80.68 35.67 C 84.64 33.06 88.40 29.81 93.15 28.74 C 98.36 27.78 104.08 28.20 108.54 31.31 C 123.19 41.08 137.81 50.91 152.44 60.71 C 156.31 63.26 159.41 67.27 160.08 71.94 C 161.10 77.57 158.30 83.41 153.88 86.86 C 142.37 95.37 130.76 103.75 119.28 112.30 C 114.64 115.70 111.23 121.07 111.47 126.98 C 111.82 146.97 112.52 166.95 112.86 186.94 C 112.76 190.35 113.47 194.46 117.14 195.75 C 120.15 197.56 123.15 195.24 125.52 193.51 C 139.08 183.72 152.69 174.01 166.26 164.24 C 169.83 161.65 173.33 158.93 177.18 156.75 C 177.25 161.71 177.37 166.68 177.50 171.65 C 158.52 185.62 139.40 199.41 120.42 213.37 C 115.01 217.60 106.79 218.03 101.30 213.75 C 96.53 210.10 92.15 205.97 87.44 202.25 C 86.75 178.54 86.09 154.83 85.54 131.12 C 81.94 128.14 78.13 125.44 74.34 122.71 C 74.50 132.82 74.60 142.93 75.11 153.03 C 75.47 166.15 75.42 179.28 76.20 192.39 C 70.04 187.83 64.37 182.66 58.46 177.80 C 58.36 170.20 58.35 162.59 57.87 155.01 C 57.38 139.87 57.27 124.72 56.76 109.58 C 53.09 106.63 49.28 103.86 45.46 101.12 C 45.47 110.43 45.59 119.74 46.22 129.03 C 46.50 142.14 46.29 155.27 47.30 168.35 C 40.19 162.16 30.66 156.32 29.69 145.99 C 29.09 129.02 28.43 112.05 28.31 95.06 C 28.39 87.64 26.36 79.75 29.70 72.74 C 31.59 68.12 36.11 65.63 39.99 62.92 C 53.61 53.92 67.08 44.70 80.68 35.67 Z" />
</g>
</svg>
